<?xml version="1.0" encoding="UTF-8" standalone="no"?>
<svg
   xmlns:dc="http://purl.org/dc/elements/1.1/"
   xmlns:cc="http://creativecommons.org/ns#"
   xmlns:rdf="http://www.w3.org/1999/02/22-rdf-syntax-ns#"
   xmlns:svg="http://www.w3.org/2000/svg"
   xmlns="http://www.w3.org/2000/svg"
   id="svg8"
   version="1.1"
   viewBox="0 0 54 21"
   height="21mm"
   width="54mm">
  <defs
     id="defs2" />
  <metadata
     id="metadata5">
    <rdf:RDF>
      <cc:Work
         rdf:about="">
        <dc:format>image/svg+xml</dc:format>
        <dc:type
           rdf:resource="http://purl.org/dc/dcmitype/StillImage" />
        <dc:title></dc:title>
      </cc:Work>
    </rdf:RDF>
  </metadata>
  <g
     transform="translate(0,-276)"
     id="layer1">
    <flowRoot
       transform="scale(0.26458333)"
       style="font-style:normal;font-weight:normal;font-size:40px;line-height:1.25;font-family:sans-serif;letter-spacing:0px;word-spacing:0px;fill:#000000;fill-opacity:1;stroke:none"
       id="flowRoot4555"
       xml:space="preserve"><flowRegion
         id="flowRegion4557"><rect
           y="447.51968"
           x="120.71429"
           height="40.357143"
           width="236.42857"
           id="rect4559" /></flowRegion><flowPara
         id="flowPara4561">Visitor</flowPara></flowRoot>    <g
       transform="translate(-26.9902,144.80663)"
       id="g4632">
      <g
         style="fill:#000000;fill-opacity:1"
         transform="matrix(0.06802934,0,0,-0.06802934,23.780752,146.36946)"
         id="g4528">
        <path
           id="path4530"
           style="fill:#000000;fill-opacity:1;fill-rule:evenodd;stroke:none"
           d="m 66.1989,204.9511 c 3.414,4.2792 9.3569,6.3992 16.0036,6.1469 4.297,-0.119 10.4258,-1.1412 15.0205,-5.0836 3.9719,-3.7123 5.7906,-6.9851 7.2907,-13.0768 0.7452,-3.6859 1.163,-7.2896 1.4371,-10.9964 0.9083,-8.1173 -2.0273,-5.2949 -3.0299,-6.3936 -0.0797,-0.0913 -0.0335,-0.5505 -0.0338,-0.8203 -0.003,-3.1813 1.395,-5.8176 -0.2069,-7.8273 -3.1385,-3.229 -7.7233,-1.2765 -7.1492,-3.011 0.6207,-5.269 0.9416,-9.7146 1.995,-14.8394 -0.9065,-0.1681 -1.5775,-0.3367 -2.484,-0.5051 -1.0658,5.6015 -1.4927,10.4865 -2.2184,16.109 -0.0746,1.1685 -2.2482,1.1387 -5.9029,3.6938 -1.8351,1.1186 -5.4306,4.5392 -6.7436,6.8437 -0.7741,1.8176 1.4936,2.518 2.1648,1.3796 1.7467,-3.0254 5.078,-5.9357 9.5261,-8.1782 2.2119,-1.1798 6.1864,-1.3249 7.9512,-0.5479 0.4439,0.2163 1.2396,0.8946 1.1058,1.7781 -0.002,1.1027 -0.2472,2.2499 -0.4635,4.1559 -0.0402,0.826 -0.6862,2.9764 0.8343,3.9989 0.4189,0.348 1.046,0.4379 1.5332,0.4478 0.658,0.0136 0.7634,0.074 0.713,1.4338 -0.1568,7.0945 -1.914,16.0503 -3.5054,18.6933 -2.474,4.5678 -6.7427,9.0386 -15.2254,9.9304 -6.4281,0.5992 -11.6161,0.447 -16.6578,-4.8036 -4.0947,-5.2342 -3.8809,-10.8227 -2.7731,-15.3989 1.0233,-3.5365 2.7459,-5.2634 6.0797,-8.0572 3.2224,-2.9926 4.2491,-3.0255 5.1996,-9.2571 0.5879,-7.3707 0.3212,-14.2104 0.0978,-21.3222 -1.2739,-0.0976 -1.2334,0.0572 -2.5073,-0.0403 -0.0076,6.7842 0.7881,14.4326 -0.2639,22.2902 -0.4527,2.6555 -1.2257,3.9135 -2.1741,4.6423 -3.0702,2.8239 -4.724,3.8107 -7.0787,7.0628 -1.7053,2.7307 -2.4426,5.6937 -2.5742,8.9961 0.0017,3.8934 0.5406,8.1895 4.0397,12.5563" />
        <path
           id="path4532"
           style="fill:#000000;fill-opacity:1;fill-rule:evenodd;stroke:none"
           d="m 119.2501,193.0691 c -6.4559,0 -12.9118,0 -19.368,0 0.2056,-0.8872 0.701,-3.1549 0.9947,-5.3282 l 19.3842,2e-4" />
        <path
           id="path4534"
           style="fill:#000000;fill-opacity:1;fill-rule:evenodd;stroke:none"
           d="m 86.3918,220.3948 c 20.5857,0 37.3756,-16.7899 37.3756,-37.3762 0,-20.5857 -16.7899,-37.3756 -37.3756,-37.3756 -20.5861,0 -37.376,16.7899 -37.376,37.3756 0,20.5863 16.7899,37.3762 37.376,37.3762 z m 0,-4.7985 c 17.9424,0 32.5771,-14.6347 32.5771,-32.5777 0,-17.9424 -14.6347,-32.5772 -32.5771,-32.5772 -17.9428,0 -32.5775,14.6348 -32.5775,32.5772 0,17.943 14.6347,32.5777 32.5775,32.5777" />
        <path
           id="path4536"
           style="fill:#000000;fill-opacity:1;fill-rule:evenodd;stroke:none"
           d="m 268.7332,166.2934 v -7.0827 c 3.1076,-1.7345 6.0707,-2.6138 8.9617,-2.6138 8.0224,0 13.4428,5.8663 13.4428,13.5995 0,5.9987 -2.5294,9.9014 -8.0946,14.3824 -5.131,4.1196 -8.6726,6.5767 -8.6726,11.3468 0,4.2644 2.8184,7.0829 7.2272,7.0829 2.5296,0 5.0592,-0.9396 7.7332,-2.8185 v 6.9381 c -2.9631,1.5903 -5.8541,2.3128 -9.034,2.3128 -7.1553,0 -12.8648,-5.6372 -12.8648,-13.5873 0,-5.9987 2.891,-9.8294 8.2392,-14.2379 4.9583,-3.8894 8.456,-6.5049 8.456,-11.4916 0,-4.1196 -2.6742,-6.7935 -6.9384,-6.7935 -2.5293,0 -5.2755,1.0117 -8.4557,2.9628" />
        <path
           id="path4538"
           style="fill:#000000;fill-opacity:1;fill-rule:evenodd;stroke:none"
           d="m 242.0643,157.2593 h 20.5979 v 6.4324 h -13.6598 v 17.4178 h 12.5033 v 6.1435 h -12.5033 v 15.3218 h 13.6598 v 6.2156 h -20.5979" />
        <path
           id="path4540"
           style="fill:#000000;fill-opacity:1;fill-rule:evenodd;stroke:none"
           d="m 234.0119,187.2533 h -13.8764 v -6.071 h 7.3717 c 0.5247,-6.3011 -0.0266,-17.9966 -8.0223,-17.9966 -6.5046,0 -8.2392,6.2156 -8.2392,19.9474 0,13.6596 1.6623,19.9474 8.2392,19.9474 4.2642,0 6.7938,-2.457 7.8058,-7.4437 l 6.1429,2.963 c -1.7345,7.2275 -6.3601,10.8411 -14.021,10.8411 -11.2745,0 -15.1772,-8.3115 -15.1772,-26.452 0,-17.9961 3.975,-26.392 14.9604,-26.392 10.1735,0 14.8841,7.0149 15.029,21.5047 0.002,0.2302 0.004,2.7752 0.004,3.0084 0,1.8791 -0.0723,3.9751 -0.2166,6.1433" />
        <path
           id="path4542"
           style="fill:#000000;fill-opacity:1;fill-rule:evenodd;stroke:none"
           d="m 179.9082,181.1823 h 1.4178 l 13.1327,-23.923 h 7.444 l -13.4631,24.465 c 6.4321,0.7951 9.7982,5.9621 9.7982,13.6233 -0.1369,9.9734 -3.5728,13.237 -14.1026,13.4428 h -11.1648 v -51.5311 h 6.9378 z m 11.33,14.008 c 0,-3.3077 -0.8569,-5.6591 -2.4193,-6.7476 -1.5049,-1.0488 -3.5442,-1.2322 -6.0531,-1.203 l -2.4058,0.0113 v 15.4145 l 2.4058,0.0119 c 2.5117,0.0295 4.553,-0.1547 6.0576,-1.2038 h -0.004 c 1.5622,-1.0888 2.4188,-2.977 2.4188,-6.2833" />
        <path
           id="path4544"
           style="fill:#000000;fill-opacity:1;fill-rule:evenodd;stroke:none"
           d="m 150.0545,195.4922 4.6256,-22.3328 h -9.2512 z m -15.3218,-38.2329 h 7.0104 l 2.385,10.1186 h 11.7802 l 2.4577,-10.1186 h 7.0103 l -12.0693,51.5311 h -6.5047" />
      </g>
      <text
         xml:space="preserve"
         style="font-style:normal;font-weight:normal;font-size:8.17901611px;line-height:1.25;font-family:sans-serif;letter-spacing:0px;word-spacing:0px;fill:#000000;fill-opacity:1;stroke:none;stroke-width:0.20447539"
         x="27.261467"
         y="139.52721"
         id="text4611"><tspan
           id="tspan4609"
           x="27.261467"
           y="139.52721"
           style="font-style:normal;font-variant:normal;font-weight:normal;font-stretch:normal;font-size:3.27160621px;font-family:sans-serif;-inkscape-font-specification:'sans-serif, Normal';font-variant-ligatures:normal;font-variant-caps:normal;font-variant-numeric:normal;font-feature-settings:normal;text-align:start;writing-mode:lr-tb;text-anchor:start;stroke-width:0.20447539">Visitor</tspan></text>
    </g>
  </g>
</svg>
